<svg xmlns="http://www.w3.org/2000/svg" width="1280" height="800">
<rect x="0" y="0" width="1280" height="800" fill="#0d1117" rx="0" stroke="none"/>
<rect x="0" y="0" width="1280" height="36" fill="#0d1117" rx="0" stroke="none"/>
<circle cx="16" cy="18" r="6" fill="#ff5f57"/>
<circle cx="34" cy="18" r="6" fill="#febc2e"/>
<circle cx="52" cy="18" r="6" fill="#28c840"/>
<text x="640" y="23" fill="#8b949e" font-size="13" text-anchor="middle" font-weight="bold" font-family="sans-serif">Logos Basecamp</text>
<line x1="0" y1="36" x2="1280" y2="36" stroke="#30363d" stroke-width="1"/>
<rect x="0" y="36" width="200" height="736" fill="#161b22" rx="0" stroke="none"/>
<text x="16" y="64" fill="#8b949e" font-size="10" text-anchor="start" font-weight="bold" font-family="monospace">MODULES</text>
<rect x="4" y="76" width="192" height="28" fill="#3b82f6" rx="4" stroke="none" opacity="0.2"/>
<rect x="0" y="76" width="3" height="28" fill="#3b82f6" rx="1" stroke="none"/>
<circle cx="24" cy="90" r="4" fill="#4caf50"/>
<text x="36" y="94" fill="#f0f0f0" font-size="12" text-anchor="start" font-weight="bold" font-family="sans-serif">Video Hotspot</text>
<circle cx="24" cy="122" r="4" fill="#30363d"/>
<text x="36" y="126" fill="#8b949e" font-size="12" text-anchor="start" font-weight="normal" font-family="sans-serif">Chat</text>
<circle cx="24" cy="154" r="4" fill="#30363d"/>
<text x="36" y="158" fill="#8b949e" font-size="12" text-anchor="start" font-weight="normal" font-family="sans-serif">Wallet</text>
<circle cx="24" cy="186" r="4" fill="#30363d"/>
<text x="36" y="190" fill="#8b949e" font-size="12" text-anchor="start" font-weight="normal" font-family="sans-serif">Browser</text>
<circle cx="24" cy="218" r="4" fill="#30363d"/>
<text x="36" y="222" fill="#8b949e" font-size="12" text-anchor="start" font-weight="normal" font-family="sans-serif">Settings</text>
<line x1="16" y1="248" x2="184" y2="248" stroke="#30363d" stroke-width="1"/>
<text x="16" y="276" fill="#8b949e" font-size="10" text-anchor="start" font-weight="bold" font-family="monospace">NETWORK</text>
<circle cx="24" cy="296" r="4" fill="#4caf50"/>
<text x="36" y="300" fill="#8b949e" font-size="11" text-anchor="start" font-weight="normal" font-family="sans-serif">Waku: 3 peers</text>
<circle cx="24" cy="318" r="4" fill="#4caf50"/>
<text x="36" y="322" fill="#8b949e" font-size="11" text-anchor="start" font-weight="normal" font-family="sans-serif">Codex: ready</text>
<circle cx="24" cy="340" r="4" fill="#ff9800"/>
<text x="36" y="344" fill="#8b949e" font-size="11" text-anchor="start" font-weight="normal" font-family="sans-serif">Nomos: sync</text>
<line x1="200" y1="36" x2="200" y2="772" stroke="#30363d" stroke-width="1"/>
<rect x="200" y="36" width="1080" height="36" fill="#161b22" rx="0" stroke="none"/>
<line x1="200" y1="36" x2="200" y2="72" stroke="#30363d" stroke-width="1"/>
<text x="335" y="59" fill="#8b949e" font-size="12" text-anchor="middle" font-weight="normal" font-family="sans-serif">Map</text>
<line x1="470" y1="36" x2="470" y2="72" stroke="#30363d" stroke-width="1"/>
<text x="605" y="59" fill="#8b949e" font-size="12" text-anchor="middle" font-weight="normal" font-family="sans-serif">Upload</text>
<line x1="740" y1="36" x2="740" y2="72" stroke="#30363d" stroke-width="1"/>
<text x="875" y="59" fill="#8b949e" font-size="12" text-anchor="middle" font-weight="normal" font-family="sans-serif">Downloads</text>
<rect x="1010" y="36" width="270" height="36" fill="#21262d" rx="0" stroke="none"/>
<rect x="1010" y="69" width="270" height="3" fill="#3b82f6" rx="0" stroke="none"/>
<line x1="1010" y1="36" x2="1010" y2="72" stroke="#30363d" stroke-width="1"/>
<text x="1145" y="59" fill="#f0f0f0" font-size="12" text-anchor="middle" font-weight="bold" font-family="sans-serif">Settings</text>
<line x1="200" y1="72" x2="1280" y2="72" stroke="#30363d" stroke-width="1"/>
<rect x="200" y="72" width="1080" height="736" fill="#0d1117" rx="0" stroke="none"/>
<text x="220" y="92" fill="#f0f0f0" font-size="16" text-anchor="start" font-weight="bold" font-family="sans-serif">Settings</text>
<rect x="220" y="124" width="1040" height="40" fill="#21262d" rx="4" stroke="none"/>
<text x="240" y="150" fill="#8b949e" font-size="12" text-anchor="start" font-weight="normal" font-family="sans-serif">Storage limit</text>
<text x="420" y="150" fill="#f0f0f0" font-size="12" text-anchor="start" font-weight="normal" font-family="monospace">10 GB</text>
<rect x="220" y="168" width="1040" height="40" fill="#21262d" rx="4" stroke="none"/>
<text x="240" y="194" fill="#8b949e" font-size="12" text-anchor="start" font-weight="normal" font-family="sans-serif">Monitor folder</text>
<text x="420" y="194" fill="#f0f0f0" font-size="12" text-anchor="start" font-weight="normal" font-family="monospace">~/Videos/Hotspot</text>
<rect x="220" y="212" width="1040" height="40" fill="#21262d" rx="4" stroke="none"/>
<text x="240" y="238" fill="#8b949e" font-size="12" text-anchor="start" font-weight="normal" font-family="sans-serif">Auto-monitoring</text>
<text x="420" y="238" fill="#4caf50" font-size="12" text-anchor="start" font-weight="normal" font-family="monospace">Enabled</text>
<rect x="220" y="256" width="1040" height="40" fill="#21262d" rx="4" stroke="none"/>
<text x="240" y="282" fill="#8b949e" font-size="12" text-anchor="start" font-weight="normal" font-family="sans-serif">Scan interval</text>
<text x="420" y="282" fill="#f0f0f0" font-size="12" text-anchor="start" font-weight="normal" font-family="monospace">30 seconds</text>
<rect x="220" y="300" width="1040" height="40" fill="#21262d" rx="4" stroke="none"/>
<text x="240" y="326" fill="#8b949e" font-size="12" text-anchor="start" font-weight="normal" font-family="sans-serif">Logos node</text>
<text x="420" y="326" fill="#4caf50" font-size="12" text-anchor="start" font-weight="normal" font-family="monospace">connected (mock)</text>
<rect x="220" y="344" width="1040" height="40" fill="#21262d" rx="4" stroke="none"/>
<text x="240" y="370" fill="#8b949e" font-size="12" text-anchor="start" font-weight="normal" font-family="sans-serif">Waku peers</text>
<text x="420" y="370" fill="#4caf50" font-size="12" text-anchor="start" font-weight="normal" font-family="monospace">3 connected</text>
<text x="220" y="418" fill="#8b949e" font-size="11" text-anchor="start" font-weight="normal" font-family="sans-serif">Video Hotspot v0.1.0  |  Logos stack: Waku, Codex, Nomos</text>
<rect x="0" y="772" width="1280" height="28" fill="#161b22" rx="0" stroke="none"/>
<line x1="0" y1="772" x2="1280" y2="772" stroke="#30363d" stroke-width="1"/>
<circle cx="16" cy="786" r="4" fill="#4caf50"/>
<text x="26" y="790" fill="#8b949e" font-size="10" text-anchor="start" font-weight="normal" font-family="monospace">Plugin: video_hotspot v0.1.0 loaded  |  IComponent: com.logos.component.IComponent</text>
<text x="1264" y="790" fill="#8b949e" font-size="10" text-anchor="end" font-weight="normal" font-family="monospace">libvideo_hotspot_plugin.so</text>
</svg>