<svg xmlns="http://www.w3.org/2000/svg" width="900" height="620" style="background:#1a1a1a; font-family:sans-serif;">
<rect x="0" y="0" width="900" height="620" fill="#1a1a1a" rx="0" stroke="none"/>
<rect x="0" y="0" width="900" height="28" fill="#111111" rx="0" stroke="none"/>
<circle cx="16" cy="14" r="6" fill="#ff5f57"/>
<circle cx="34" cy="14" r="6" fill="#febc2e"/>
<circle cx="52" cy="14" r="6" fill="#28c840"/>
<text x="450" y="19" fill="#888888" font-size="11" text-anchor="middle" font-weight="normal" font-family="sans-serif">Video Hotspot</text>
<g transform="translate(0,28)">
<rect x="0" y="0" width="900" height="44" fill="#3a3a3a" rx="0" stroke="none"/>
<rect x="0" y="0" width="225" height="44" fill="#3a3a3a" rx="0" stroke="none"/>
<line x1="0" y1="0" x2="0" y2="44" stroke="#444444" stroke-width="1"/>
<text x="112" y="27" fill="#888888" font-size="13" text-anchor="middle" font-weight="normal" font-family="sans-serif">Upload</text>
<rect x="225" y="0" width="225" height="44" fill="#4a90d9" rx="0" stroke="none"/>
<line x1="225" y1="0" x2="225" y2="44" stroke="#444444" stroke-width="1"/>
<text x="337" y="27" fill="#f0f0f0" font-size="13" text-anchor="middle" font-weight="bold" font-family="sans-serif">Map</text>
<rect x="450" y="0" width="225" height="44" fill="#3a3a3a" rx="0" stroke="none"/>
<line x1="450" y1="0" x2="450" y2="44" stroke="#444444" stroke-width="1"/>
<text x="562" y="27" fill="#888888" font-size="13" text-anchor="middle" font-weight="normal" font-family="sans-serif">Downloads</text>
<rect x="675" y="0" width="225" height="44" fill="#3a3a3a" rx="0" stroke="none"/>
<line x1="675" y1="0" x2="675" y2="44" stroke="#444444" stroke-width="1"/>
<text x="787" y="27" fill="#888888" font-size="13" text-anchor="middle" font-weight="normal" font-family="sans-serif">Settings</text>
<rect x="0" y="44" width="900" height="576" fill="#1e2a1e" rx="0" stroke="none"/>
<line x1="0" y1="44" x2="0" y2="620" stroke="#263326" stroke-width="1"/>
<line x1="80" y1="44" x2="80" y2="620" stroke="#263326" stroke-width="1"/>
<line x1="160" y1="44" x2="160" y2="620" stroke="#263326" stroke-width="1"/>
<line x1="240" y1="44" x2="240" y2="620" stroke="#263326" stroke-width="1"/>
<line x1="320" y1="44" x2="320" y2="620" stroke="#263326" stroke-width="1"/>
<line x1="400" y1="44" x2="400" y2="620" stroke="#263326" stroke-width="1"/>
<line x1="480" y1="44" x2="480" y2="620" stroke="#263326" stroke-width="1"/>
<line x1="560" y1="44" x2="560" y2="620" stroke="#263326" stroke-width="1"/>
<line x1="640" y1="44" x2="640" y2="620" stroke="#263326" stroke-width="1"/>
<line x1="720" y1="44" x2="720" y2="620" stroke="#263326" stroke-width="1"/>
<line x1="800" y1="44" x2="800" y2="620" stroke="#263326" stroke-width="1"/>
<line x1="880" y1="44" x2="880" y2="620" stroke="#263326" stroke-width="1"/>
<line x1="0" y1="44" x2="900" y2="44" stroke="#263326" stroke-width="1"/>
<line x1="0" y1="124" x2="900" y2="124" stroke="#263326" stroke-width="1"/>
<line x1="0" y1="204" x2="900" y2="204" stroke="#263326" stroke-width="1"/>
<line x1="0" y1="284" x2="900" y2="284" stroke="#263326" stroke-width="1"/>
<line x1="0" y1="364" x2="900" y2="364" stroke="#263326" stroke-width="1"/>
<line x1="0" y1="444" x2="900" y2="444" stroke="#263326" stroke-width="1"/>
<line x1="0" y1="524" x2="900" y2="524" stroke="#263326" stroke-width="1"/>
<line x1="0" y1="604" x2="900" y2="604" stroke="#263326" stroke-width="1"/>
<line x1="0" y1="244" x2="900" y2="244" stroke="#2d3d2d" stroke-width="8"/>
<line x1="320" y1="44" x2="320" y2="620" stroke="#2d3d2d" stroke-width="12"/>
<line x1="600" y1="44" x2="600" y2="620" stroke="#2d3d2d" stroke-width="6"/>
<line x1="0" y1="424" x2="900" y2="424" stroke="#2d3d2d" stroke-width="6"/>
<circle cx="280" cy="224" r="14" fill="#4a90d9" opacity="0.85"/>
<circle cx="280" cy="224" r="14" fill="none" stroke="#f0f0f0" stroke-width="1.5" opacity="0.5"/>
<text x="280" y="229" fill="#f0f0f0" font-size="10" text-anchor="middle" font-weight="normal" font-family="sans-serif">▶</text>
<circle cx="360" cy="284" r="14" fill="#ff9800" opacity="0.85"/>
<circle cx="360" cy="284" r="14" fill="none" stroke="#f0f0f0" stroke-width="1.5" opacity="0.5"/>
<text x="360" y="289" fill="#f0f0f0" font-size="10" text-anchor="middle" font-weight="normal" font-family="sans-serif">▶</text>
<circle cx="520" cy="204" r="14" fill="#4a90d9" opacity="0.85"/>
<circle cx="520" cy="204" r="14" fill="none" stroke="#f0f0f0" stroke-width="1.5" opacity="0.5"/>
<text x="520" y="209" fill="#f0f0f0" font-size="10" text-anchor="middle" font-weight="normal" font-family="sans-serif">▶</text>
<circle cx="440" cy="364" r="14" fill="#4caf50" opacity="0.85"/>
<circle cx="440" cy="364" r="14" fill="none" stroke="#f0f0f0" stroke-width="1.5" opacity="0.5"/>
<text x="440" y="369" fill="#f0f0f0" font-size="10" text-anchor="middle" font-weight="normal" font-family="sans-serif">▶</text>
<circle cx="650" cy="334" r="14" fill="#4a90d9" opacity="0.85"/>
<circle cx="650" cy="334" r="14" fill="none" stroke="#f0f0f0" stroke-width="1.5" opacity="0.5"/>
<text x="650" y="339" fill="#f0f0f0" font-size="10" text-anchor="middle" font-weight="normal" font-family="sans-serif">▶</text>
<rect x="480" y="94" width="200" height="90" fill="#2a2a2a" rx="6" stroke="#4a90d9" stroke-width="1"/>
<rect x="488" y="102" width="60" height="40" fill="#3a3a3a" rx="3" stroke="none"/>
<text x="518" y="127" fill="#888888" font-size="14" text-anchor="middle" font-weight="normal" font-family="sans-serif">▶</text>
<text x="556" y="116" fill="#f0f0f0" font-size="11" text-anchor="start" font-weight="bold" font-family="monospace">sample1.mp4</text>
<text x="556" y="130" fill="#888888" font-size="10" text-anchor="start" font-weight="normal" font-family="monospace">2026-03-14 11:07</text>
<text x="556" y="144" fill="#888888" font-size="10" text-anchor="start" font-weight="normal" font-family="monospace">1.7 KB · user-owned</text>
<rect x="556" y="154" width="70" height="20" fill="#4a90d9" rx="3" stroke="none"/>
<text x="591" y="168" fill="#f0f0f0" font-size="10" text-anchor="middle" font-weight="normal" font-family="sans-serif">Download</text>
<line x1="520" y1="184" x2="520" y2="190" stroke="#4a90d9" stroke-width="1"/>
<rect x="0" y="568" width="900" height="52" fill="#2a2a2a" rx="0" stroke="none"/>
<line x1="0" y1="568" x2="900" y2="568" stroke="#444444" stroke-width="1"/>
<rect x="16" y="576" width="50" height="18" fill="#3a3a3a" rx="9" stroke="none"/>
<text x="41" y="589" fill="#888888" font-size="10" text-anchor="middle" font-weight="normal" font-family="sans-serif">hour</text>
<rect x="74" y="576" width="50" height="18" fill="#4a90d9" rx="9" stroke="none"/>
<text x="99" y="589" fill="#f0f0f0" font-size="10" text-anchor="middle" font-weight="bold" font-family="sans-serif">day</text>
<rect x="132" y="576" width="50" height="18" fill="#3a3a3a" rx="9" stroke="none"/>
<text x="157" y="589" fill="#888888" font-size="10" text-anchor="middle" font-weight="normal" font-family="sans-serif">week</text>
<rect x="190" y="576" width="50" height="18" fill="#3a3a3a" rx="9" stroke="none"/>
<text x="215" y="589" fill="#888888" font-size="10" text-anchor="middle" font-weight="normal" font-family="sans-serif">month</text>
<rect x="248" y="576" width="50" height="18" fill="#3a3a3a" rx="9" stroke="none"/>
<text x="273" y="589" fill="#888888" font-size="10" text-anchor="middle" font-weight="normal" font-family="sans-serif">year</text>
<rect x="310" y="582" width="550" height="6" fill="#3a3a3a" rx="3" stroke="none"/>
<rect x="310" y="582" width="357" height="6" fill="#4a90d9" rx="3" stroke="none"/>
<circle cx="667" cy="585" r="9" fill="#4a90d9"/>
<text x="667" y="610" fill="#888888" font-size="10" text-anchor="middle" font-weight="normal" font-family="monospace">2026-03-14</text>
<rect x="864" y="64" width="28" height="28" fill="#2a2a2a" rx="4" stroke="#444444" stroke-width="1"/>
<text x="878" y="83" fill="#f0f0f0" font-size="16" text-anchor="middle" font-weight="normal" font-family="sans-serif">+</text>
<rect x="864" y="98" width="28" height="28" fill="#2a2a2a" rx="4" stroke="#444444" stroke-width="1"/>
<text x="878" y="117" fill="#f0f0f0" font-size="16" text-anchor="middle" font-weight="normal" font-family="sans-serif">−</text>
</g></svg>