<svg xmlns="http://www.w3.org/2000/svg" width="1280" height="800">
<rect x="0" y="0" width="1280" height="800" fill="#1a1a1a" rx="0" stroke="none"/>
<rect x="0" y="0" width="1280" height="40" fill="#111111" rx="0" stroke="none"/>
<circle cx="18" cy="20" r="7" fill="#ff5f57"/>
<circle cx="38" cy="20" r="7" fill="#febc2e"/>
<circle cx="58" cy="20" r="7" fill="#28c840"/>
<text x="640" y="25" fill="#888888" font-size="12" text-anchor="middle" font-weight="normal" font-family="sans-serif">Video Hotspot</text>
<rect x="0" y="40" width="1280" height="44" fill="#222222" rx="0" stroke="none"/>
<rect x="0" y="40" width="320" height="44" fill="#222222" rx="0" stroke="none"/>
<line x1="0" y1="40" x2="0" y2="84" stroke="#333333" stroke-width="1"/>
<text x="160" y="67" fill="#888888" font-size="13" text-anchor="middle" font-weight="normal" font-family="sans-serif">Map</text>
<rect x="320" y="40" width="320" height="44" fill="#222222" rx="0" stroke="none"/>
<line x1="320" y1="40" x2="320" y2="84" stroke="#333333" stroke-width="1"/>
<text x="480" y="67" fill="#888888" font-size="13" text-anchor="middle" font-weight="normal" font-family="sans-serif">Upload</text>
<rect x="640" y="40" width="320" height="44" fill="#222222" rx="0" stroke="none"/>
<line x1="640" y1="40" x2="640" y2="84" stroke="#333333" stroke-width="1"/>
<text x="800" y="67" fill="#888888" font-size="13" text-anchor="middle" font-weight="normal" font-family="sans-serif">Downloads</text>
<rect x="960" y="40" width="320" height="44" fill="#4a90d9" rx="0" stroke="none"/>
<line x1="960" y1="40" x2="960" y2="84" stroke="#333333" stroke-width="1"/>
<text x="1120" y="67" fill="#f0f0f0" font-size="13" text-anchor="middle" font-weight="bold" font-family="sans-serif">Settings</text>
<text x="24" y="108" fill="#f0f0f0" font-size="18" text-anchor="start" font-weight="bold" font-family="sans-serif">Settings</text>
<rect x="24" y="144" width="1232" height="46" fill="#2a2a2a" rx="5" stroke="none"/>
<text x="44" y="174" fill="#888888" font-size="13" text-anchor="start" font-weight="normal" font-family="sans-serif">Storage limit</text>
<rect x="244" y="167" width="892" height="6" fill="#3a3a3a" rx="3" stroke="none"/>
<rect x="244" y="167" width="178" height="6" fill="#4a90d9" rx="3" stroke="none"/>
<circle cx="422" cy="170" r="9" fill="#4a90d9" stroke="#f0f0f0" stroke-width="1"/>
<text x="1152" y="175" fill="#4a90d9" font-size="13" text-anchor="start" font-weight="bold" font-family="sans-serif">10 GB</text>
<rect x="24" y="196" width="1232" height="46" fill="#2a2a2a" rx="5" stroke="none"/>
<text x="44" y="226" fill="#888888" font-size="13" text-anchor="start" font-weight="normal" font-family="sans-serif">Monitor folder</text>
<text x="244" y="226" fill="#f0f0f0" font-size="13" text-anchor="start" font-weight="normal" font-family="monospace">~/Videos/Hotspot</text>
<rect x="1160" y="208" width="76" height="26" fill="#3a3a3a" rx="4" stroke="none"/>
<text x="1198" y="226" fill="#f0f0f0" font-size="12" text-anchor="middle" font-weight="normal" font-family="sans-serif">Change</text>
<rect x="24" y="248" width="1232" height="46" fill="#2a2a2a" rx="5" stroke="none"/>
<text x="44" y="278" fill="#888888" font-size="13" text-anchor="start" font-weight="normal" font-family="sans-serif">Auto-monitoring</text>
<rect x="244" y="262" width="48" height="24" fill="#4caf50" rx="12" stroke="none"/>
<circle cx="278" cy="274" r="9" fill="#f0f0f0"/>
<text x="308" y="279" fill="#4caf50" font-size="12" text-anchor="start" font-weight="normal" font-family="sans-serif">Enabled</text>
<rect x="24" y="300" width="1232" height="46" fill="#2a2a2a" rx="5" stroke="none"/>
<text x="44" y="330" fill="#888888" font-size="13" text-anchor="start" font-weight="normal" font-family="sans-serif">Scan interval</text>
<text x="244" y="330" fill="#f0f0f0" font-size="13" text-anchor="start" font-weight="normal" font-family="sans-serif">30 seconds</text>
<rect x="24" y="352" width="1232" height="46" fill="#2a2a2a" rx="5" stroke="none"/>
<text x="44" y="382" fill="#888888" font-size="13" text-anchor="start" font-weight="normal" font-family="sans-serif">Logos node</text>
<circle cx="252" cy="378" r="6" fill="#4caf50"/>
<text x="266" y="383" fill="#4caf50" font-size="13" text-anchor="start" font-weight="normal" font-family="sans-serif">connected  (mock)</text>
<rect x="24" y="404" width="1232" height="46" fill="#2a2a2a" rx="5" stroke="none"/>
<text x="44" y="434" fill="#888888" font-size="13" text-anchor="start" font-weight="normal" font-family="sans-serif">Waku peers</text>
<text x="244" y="434" fill="#4a90d9" font-size="13" text-anchor="start" font-weight="normal" font-family="sans-serif">3 connected</text>
<text x="24" y="480" fill="#888888" font-size="11" text-anchor="start" font-weight="normal" font-family="sans-serif">Video Hotspot  v0.1.0  ·  Logos stack: Waku · Codex · Nomos</text>
</svg>