<svg xmlns="http://www.w3.org/2000/svg" width="1280" height="800">
<rect x="0" y="0" width="1280" height="800" fill="#1a1a1a" rx="0" stroke="none"/>
<rect x="0" y="0" width="1280" height="40" fill="#111111" rx="0" stroke="none"/>
<circle cx="18" cy="20" r="7" fill="#ff5f57"/>
<circle cx="38" cy="20" r="7" fill="#febc2e"/>
<circle cx="58" cy="20" r="7" fill="#28c840"/>
<text x="640" y="25" fill="#888888" font-size="12" text-anchor="middle" font-weight="normal" font-family="sans-serif">Video Hotspot</text>
<rect x="0" y="40" width="1280" height="44" fill="#222222" rx="0" stroke="none"/>
<rect x="0" y="40" width="320" height="44" fill="#222222" rx="0" stroke="none"/>
<line x1="0" y1="40" x2="0" y2="84" stroke="#333333" stroke-width="1"/>
<text x="160" y="67" fill="#888888" font-size="13" text-anchor="middle" font-weight="normal" font-family="sans-serif">Map</text>
<rect x="320" y="40" width="320" height="44" fill="#222222" rx="0" stroke="none"/>
<line x1="320" y1="40" x2="320" y2="84" stroke="#333333" stroke-width="1"/>
<text x="480" y="67" fill="#888888" font-size="13" text-anchor="middle" font-weight="normal" font-family="sans-serif">Upload</text>
<rect x="640" y="40" width="320" height="44" fill="#4a90d9" rx="0" stroke="none"/>
<line x1="640" y1="40" x2="640" y2="84" stroke="#333333" stroke-width="1"/>
<text x="800" y="67" fill="#f0f0f0" font-size="13" text-anchor="middle" font-weight="bold" font-family="sans-serif">Downloads</text>
<rect x="960" y="40" width="320" height="44" fill="#222222" rx="0" stroke="none"/>
<line x1="960" y1="40" x2="960" y2="84" stroke="#333333" stroke-width="1"/>
<text x="1120" y="67" fill="#888888" font-size="13" text-anchor="middle" font-weight="normal" font-family="sans-serif">Settings</text>
<text x="24" y="108" fill="#f0f0f0" font-size="18" text-anchor="start" font-weight="bold" font-family="sans-serif">Downloads &amp; Cache</text>
<text x="24" y="138" fill="#888888" font-size="13" text-anchor="start" font-weight="normal" font-family="sans-serif">Storage: 1.2 GB of 10 GB used  (12%)</text>
<rect x="24" y="156" width="1232" height="16" fill="#3a3a3a" rx="6" stroke="none"/>
<rect x="24" y="156" width="147" height="16" fill="#4a90d9" rx="6" stroke="none"/>
<line x1="24" y1="188" x2="1256" y2="188" stroke="#444444" stroke-width="1"/>
<text x="24" y="204" fill="#888888" font-size="13" text-anchor="start" font-weight="bold" font-family="sans-serif">Your Videos  (3)</text>
<rect x="24" y="224" width="1232" height="46" fill="#2a2a2a" rx="5" stroke="none"/>
<circle cx="44" cy="247" r="10" fill="#4caf50"/>
<text x="44" y="252" fill="#f0f0f0" font-size="11" text-anchor="middle" font-weight="bold" font-family="sans-serif">✓</text>
<text x="62" y="242" fill="#f0f0f0" font-size="13" text-anchor="start" font-weight="bold" font-family="monospace">sample-event.mp4</text>
<text x="62" y="259" fill="#888888" font-size="11" text-anchor="start" font-weight="normal" font-family="monospace">2.3 MB  ·  2026-03-14 08:12</text>
<rect x="1160" y="236" width="80" height="20" fill="#1a3a1a" rx="10" stroke="#4caf50" stroke-width="1"/>
<text x="1200" y="250" fill="#4caf50" font-size="10" text-anchor="middle" font-weight="normal" font-family="sans-serif">✓ Owned</text>
<rect x="24" y="276" width="1232" height="46" fill="#2a2a2a" rx="5" stroke="none"/>
<circle cx="44" cy="299" r="10" fill="#4caf50"/>
<text x="44" y="304" fill="#f0f0f0" font-size="11" text-anchor="middle" font-weight="bold" font-family="sans-serif">✓</text>
<text x="62" y="294" fill="#f0f0f0" font-size="13" text-anchor="start" font-weight="bold" font-family="monospace">march-footage.mp4</text>
<text x="62" y="311" fill="#888888" font-size="11" text-anchor="start" font-weight="normal" font-family="monospace">8.1 MB  ·  2026-03-13 15:44</text>
<rect x="1160" y="288" width="80" height="20" fill="#1a3a1a" rx="10" stroke="#4caf50" stroke-width="1"/>
<text x="1200" y="302" fill="#4caf50" font-size="10" text-anchor="middle" font-weight="normal" font-family="sans-serif">✓ Owned</text>
<rect x="24" y="328" width="1232" height="46" fill="#2a2a2a" rx="5" stroke="none"/>
<circle cx="44" cy="351" r="10" fill="#4caf50"/>
<text x="44" y="356" fill="#f0f0f0" font-size="11" text-anchor="middle" font-weight="bold" font-family="sans-serif">✓</text>
<text x="62" y="346" fill="#f0f0f0" font-size="13" text-anchor="start" font-weight="bold" font-family="monospace">clip-b.mp4</text>
<text x="62" y="363" fill="#888888" font-size="11" text-anchor="start" font-weight="normal" font-family="monospace">4.5 MB  ·  2026-03-12 22:31</text>
<rect x="1160" y="340" width="80" height="20" fill="#1a3a1a" rx="10" stroke="#4caf50" stroke-width="1"/>
<text x="1200" y="354" fill="#4caf50" font-size="10" text-anchor="middle" font-weight="normal" font-family="sans-serif">✓ Owned</text>
<line x1="24" y1="396" x2="1256" y2="396" stroke="#444444" stroke-width="1"/>
<text x="24" y="412" fill="#888888" font-size="13" text-anchor="start" font-weight="bold" font-family="sans-serif">Cached (Peers)</text>
<rect x="24" y="432" width="1232" height="46" fill="#2a2a2a" rx="5" stroke="none"/>
<text x="62" y="459" fill="#888888" font-size="12" text-anchor="start" font-weight="normal" font-family="sans-serif">No cached peer content yet — browse the Map to discover videos</text>
</svg>